<?xml version="1.0" encoding="UTF-8"?>
<svg version="1.1" xmlns="http://www.w3.org/2000/svg" width="1536" height="1024">
<path d="M0 0 C506.88 0 1013.76 0 1536 0 C1536 337.92 1536 675.84 1536 1024 C1029.12 1024 522.24 1024 0 1024 C0 686.08 0 348.16 0 0 Z " fill="#FDFDFD" transform="translate(0,0)"/>
<path d="M0 0 C1.06605469 0.37382812 2.13210938 0.74765625 3.23046875 1.1328125 C20.87308089 7.88575149 32.91085734 18.77371656 41.06640625 35.7265625 C42.18817621 38.45823662 42.76768952 41.05740056 43 44 C42.34257813 43.45472656 42.34257813 43.45472656 41.671875 42.8984375 C26.31815681 30.72780723 10.16251523 27.39980508 -9 29 C-14.5113834 29.77684261 -19.71917542 31.27214624 -25 33 C-26.03511719 33.32742188 -27.07023437 33.65484375 -28.13671875 33.9921875 C-53.75603736 42.98027111 -76.68532663 59.57408479 -96.54296875 77.78515625 C-108.98412698 89 -108.98412698 89 -112 89 C-112.33 89.99 -112.66 90.98 -113 92 C-115.1171875 93.9453125 -115.1171875 93.9453125 -117.875 96.125 C-118.88175781 96.92808594 -119.88851563 97.73117187 -120.92578125 98.55859375 C-121.94027344 99.36425781 -122.95476562 100.16992188 -124 101 C-125.68938663 102.39354934 -127.37690303 103.78936918 -129.0625 105.1875 C-131.03800989 106.79644928 -133.01671338 108.40070648 -135 110 C-135.63260742 110.51191895 -136.26521484 111.02383789 -136.91699219 111.55126953 C-173.50237115 141.01756416 -215.0992123 162.39121172 -262 169 C-262.80453613 169.11569336 -263.60907227 169.23138672 -264.43798828 169.35058594 C-283.81330568 172.03154753 -302.81953673 171.87113308 -322 168 C-322.73057617 167.86078125 -323.46115234 167.7215625 -324.21386719 167.578125 C-335.18369459 165.45967822 -344.97927788 161.91168266 -355 157 C-356.47919922 156.29037109 -356.47919922 156.29037109 -357.98828125 155.56640625 C-379.15092062 144.75539077 -392.90580516 127.33729622 -400.8125 105.125 C-401.81210431 101.99702473 -402.32058842 99.312747 -402 96 C-399.71333467 98.21737245 -397.49594636 100.38425361 -395.49609375 102.8671875 C-384.94419856 115.93628179 -368.23075197 121.75346888 -352 124 C-334.92236584 125.31504989 -317.15989027 122.476109 -301 117 C-300.35047363 116.78956055 -299.70094727 116.57912109 -299.03173828 116.36230469 C-265.82019689 105.5167698 -235.3213641 86.60135038 -205.64257812 68.60253906 C-199.77587304 65.04479219 -193.89020878 61.51866141 -188 58 C-187.02305176 57.41605469 -186.04610352 56.83210938 -185.03955078 56.23046875 C-163.69302946 43.48477605 -142.16432866 31.28037552 -120 20 C-119.18418457 19.58331055 -118.36836914 19.16662109 -117.52783203 18.73730469 C-96.61764761 8.15329911 -75.09173808 0.98875837 -52 -3 C-51.04359619 -3.17813232 -50.08719238 -3.35626465 -49.10180664 -3.53979492 C-33.35892409 -5.87551579 -15.00159708 -5.49759127 0 0 Z " fill="#1171C2" transform="translate(918,387)"/>
<path d="M0 0 C1.07420197 -0.00442612 1.07420197 -0.00442612 2.17010498 -0.00894165 C15.54342306 -0.02144566 28.22046237 1.5409844 41.3125 4.3125 C42.73520128 4.59098355 44.15834072 4.86724378 45.58203125 5.140625 C80.09446099 12.05046184 115.99353962 30.55386651 139.3125 57.3125 C139.3125 57.9725 139.3125 58.6325 139.3125 59.3125 C140.3025 59.6425 141.2925 59.9725 142.3125 60.3125 C143.64355469 61.79614258 143.64355469 61.79614258 144.984375 63.70703125 C145.4803418 64.40868408 145.97630859 65.11033691 146.48730469 65.83325195 C147.00711914 66.58952881 147.52693359 67.34580566 148.0625 68.125 C148.60036133 68.90254639 149.13822266 69.68009277 149.69238281 70.48120117 C164.00495306 91.35262104 174.66166517 115.51628778 174.375 141.25 C174.37048828 142.02923828 174.36597656 142.80847656 174.36132812 143.61132812 C174.34966908 145.51175268 174.33173877 147.41213706 174.3125 149.3125 C173.075 148.9 171.8375 148.4875 170.5625 148.0625 C169.7271875 147.78921875 168.891875 147.5159375 168.03125 147.234375 C166.26806639 146.63651389 164.51644506 146.00292308 162.78125 145.328125 C137.97208907 136.060335 107.62335802 136.59621905 82.3125 143.3125 C81.52262695 143.52148926 80.73275391 143.73047852 79.91894531 143.94580078 C60.72669 149.2026044 42.62356703 157.59633611 25.3125 167.3125 C24.28398926 167.88145996 23.25547852 168.45041992 22.19580078 169.03662109 C13.51825147 173.87833296 5.26809945 179.21519797 -2.9375 184.8125 C-5.31415642 186.43240065 -7.69488289 188.04605953 -10.078125 189.65625 C-11.6254834 190.71102539 -11.6254834 190.71102539 -13.20410156 191.78710938 C-15.6875 193.3125 -15.6875 193.3125 -17.6875 193.3125 C-17.6875 129.9525 -17.6875 66.5925 -17.6875 1.3125 C-12.05074996 -0.56641668 -5.90242301 0.02114276 0 0 Z " fill="#1691EA" transform="translate(586.6875,264.6875)"/>
<path d="M0 0 C0 44.22 0 88.44 0 134 C-1.65 132.35 -3.3 130.7 -5 129 C-23.44961918 110.63292945 -49.4873809 104.78722082 -74.625 104.8125 C-92.71211684 104.87644905 -108.079667 107.85889451 -125.34960938 113.19091797 C-127.49025923 113.84439196 -129.64208092 114.46120174 -131.796875 115.06640625 C-150.53092946 120.36804857 -171.61935124 129.94902521 -186.70776367 142.19824219 C-189 144 -189 144 -191 144 C-193.51911382 115.3380828 -180.11971554 85.45742906 -162.75 63.375 C-161.51123373 61.90711232 -160.26194911 60.44800571 -159 59 C-158.41734375 58.29746094 -157.8346875 57.59492188 -157.234375 56.87109375 C-153.77559622 52.76574145 -150.10382127 49.15793175 -146 45.69921875 C-144.74214432 44.63053277 -143.50831275 43.53221421 -142.3125 42.39453125 C-118.33626882 19.86329614 -84.51814254 8.27122717 -53 2 C-52.1764502 1.82210938 -51.35290039 1.64421875 -50.50439453 1.4609375 C-36.22782018 -1.61862316 -14.07922312 -4.69307437 0 0 Z " fill="#7BC948" transform="translate(960,266)"/>
<path d="M0 0 C1.06605469 0.37382812 2.13210938 0.74765625 3.23046875 1.1328125 C20.87308089 7.88575149 32.91085734 18.77371656 41.06640625 35.7265625 C42.18817621 38.45823662 42.76768952 41.05740056 43 44 C39.58690678 42.17155721 38.77650593 40.45965632 37.6875 36.9375 C34.13291114 28.44521377 23.9470111 23.66035142 15.87890625 20.10546875 C-4.49661713 11.755485 -26.0487274 12.03157337 -47 18 C-48.00546875 18.27714844 -49.0109375 18.55429687 -50.046875 18.83984375 C-71.2558434 25.34033265 -92.49933887 35.82855776 -111.11767578 47.80419922 C-113.37531458 49.23842942 -115.65323979 50.63732553 -117.93359375 52.03515625 C-127.18369143 57.7079331 -136.33985618 63.47575868 -145.3359375 69.54296875 C-151.44070308 73.65532169 -157.64671567 77.61358509 -163.83398438 81.60009766 C-166.00286056 83.00184879 -168.16621502 84.41175137 -170.328125 85.82421875 C-174.53756984 88.5723562 -178.76298357 91.29458654 -183 94 C-183.85899902 94.55155762 -183.85899902 94.55155762 -184.73535156 95.11425781 C-232.70909763 125.68436867 -291.0128366 152.48886097 -349 141 C-368.63475674 136.40978341 -384.38836992 127.85784849 -396 111 C-396 110.34 -396 109.68 -396 109 C-396.66 109 -397.32 109 -398 109 C-398 108.34 -398 107.68 -398 107 C-398.66 107 -399.32 107 -400 107 C-401.42258812 103.17679443 -402.24042276 100.08718695 -402 96 C-399.71333467 98.21737245 -397.49594636 100.38425361 -395.49609375 102.8671875 C-384.94419856 115.93628179 -368.23075197 121.75346888 -352 124 C-334.92236584 125.31504989 -317.15989027 122.476109 -301 117 C-300.35047363 116.78956055 -299.70094727 116.57912109 -299.03173828 116.36230469 C-265.82019689 105.5167698 -235.3213641 86.60135038 -205.64257812 68.60253906 C-199.77587304 65.04479219 -193.89020878 61.51866141 -188 58 C-187.02305176 57.41605469 -186.04610352 56.83210938 -185.03955078 56.23046875 C-163.69302946 43.48477605 -142.16432866 31.28037552 -120 20 C-119.18418457 19.58331055 -118.36836914 19.16662109 -117.52783203 18.73730469 C-96.61764761 8.15329911 -75.09173808 0.98875837 -52 -3 C-51.04359619 -3.17813232 -50.08719238 -3.35626465 -49.10180664 -3.53979492 C-33.35892409 -5.87551579 -15.00159708 -5.49759127 0 0 Z " fill="#21BAEA" transform="translate(918,387)"/>
<path d="M0 0 C0.67166199 0.24410614 1.34332397 0.48821228 2.03533936 0.73971558 C4.57223175 1.89415565 6.14015348 2.90510942 8 5 C9.15139247 9.73057665 8.93181202 14.43606083 8.78125 19.26953125 C8.76631796 20.67482782 8.75493546 22.08016621 8.74694824 23.48551941 C8.71648641 27.17410458 8.63798617 30.86014568 8.54931641 34.54772949 C8.46728951 38.31467265 8.43090154 42.08202944 8.390625 45.84960938 C8.30497642 53.23422945 8.16855344 60.61675751 8 68 C6.27315262 67.8575796 4.5466559 67.71090446 2.8203125 67.5625 C1.37809326 67.44068359 1.37809326 67.44068359 -0.09326172 67.31640625 C-2.81930054 67.01966962 -5.44297542 66.56297946 -8.125 66 C-12.67311745 65.13229871 -17.17951654 64.70931688 -21.796875 64.45703125 C-22.9091597 64.39489189 -22.9091597 64.39489189 -24.04391479 64.33149719 C-32.06907064 63.9083045 -40.08916939 63.71436022 -48.125 63.6875 C-48.89092468 63.68488159 -49.65684937 63.68226318 -50.44598389 63.67956543 C-66.54888061 63.67375466 -82.11586319 65.30411305 -98 68 C-98.87172852 68.14421387 -99.74345703 68.28842773 -100.64160156 68.43701172 C-105.85140989 69.33581805 -110.91870309 70.54424383 -116 72 C-116.95664551 72.27376465 -117.91329102 72.5475293 -118.89892578 72.82958984 C-144.58079629 80.38727303 -168.1855195 92.07833693 -191 106 C-191.33 105.34 -191.66 104.68 -192 104 C-191.38213623 103.52578613 -190.76427246 103.05157227 -190.12768555 102.56298828 C-181.36281398 95.63321926 -173.63572249 87.83039433 -165.8125 79.875 C-163.1974398 77.22315302 -160.57911059 74.57459439 -157.95703125 71.9296875 C-157.02855881 70.99283112 -157.02855881 70.99283112 -156.08132935 70.03704834 C-152.35114376 66.29441469 -148.54643188 62.70062368 -144.51049805 59.28564453 C-142.5622703 57.62743097 -140.77625849 55.83969629 -139 54 C-135.16412421 50.11969322 -131.14437713 46.54551804 -127 43 C-125.94612512 42.08259322 -124.89278238 41.16457495 -123.83984375 40.24609375 C-90.42515608 11.19844619 -45.65929774 -21.54896125 0 0 Z " fill="#2A905C" transform="translate(952,434)"/>
<path d="M0 0 C4.95 0 9.9 0 15 0 C15 85.8 15 171.6 15 260 C-11.65593306 255.89908722 -11.65593306 255.89908722 -22.87109375 253.72265625 C-28.13768854 252.7594325 -33.44258973 252.07064178 -38.75 251.375 C-39.68481201 251.25181396 -40.61962402 251.12862793 -41.58276367 251.00170898 C-52.27465858 249.64136678 -62.90496845 248.84308649 -73.68359375 248.76171875 C-75.30683815 248.7472319 -75.30683815 248.7472319 -76.96287537 248.73245239 C-80.45445227 248.70772736 -83.94584506 248.69506365 -87.4375 248.6875 C-88.63175598 248.68454926 -89.82601196 248.68159851 -91.05645752 248.67855835 C-106.41597522 248.66995207 -121.60960414 249.05128877 -136.875 250.8125 C-137.59702606 250.89527191 -138.31905212 250.97804382 -139.06295776 251.06332397 C-160.9021361 253.64441233 -181.82233136 258.91695615 -202.80517578 265.33691406 C-205.86049603 266.25996743 -208.92803981 267.13407834 -212 268 C-196.40332214 250.9481297 -161.6542576 241.70319648 -140 236 C-138.87561523 235.69376709 -138.87561523 235.69376709 -137.72851562 235.38134766 C-97.19216766 224.43727006 -40.30741421 221.56419526 0 235 C0 157.45 0 79.9 0 0 Z " fill="#379057" transform="translate(973,284)"/>
<path d="M0 0 C0 0.66 0 1.32 0 2 C-0.92296875 2.44988281 -1.8459375 2.89976562 -2.796875 3.36328125 C-19.30332563 11.47574722 -35.30626619 20.41733072 -51 30 C-140.67961961 84.52580709 -140.67961961 84.52580709 -186.125 75.7578125 C-196.65582202 72.98202518 -206.65766598 68.15814891 -214 60 C-214.680625 59.2575 -215.36125 58.515 -216.0625 57.75 C-219.52453302 52.83614668 -222.79902796 47.19246666 -222 41 C-221 42.33333333 -220 43.66666667 -219 45 C-218.1646875 46.051875 -218.1646875 46.051875 -217.3125 47.125 C-216 49 -216 49 -216 51 C-206.90794642 55.8990124 -197.05262833 57.04284181 -187 55 C-169.70989978 49.66682968 -154.05438925 39.5231488 -138.62109375 30.33984375 C-97.23922639 5.72532247 -48.9448588 -17.10838529 0 0 Z " fill="#21C1CA" transform="translate(744,422)"/>
<path d="M0 0 C5.94 0 11.88 0 18 0 C18 33.99 18 67.98 18 103 C12.39 103 6.78 103 1 103 C0.505 99.04 0.505 99.04 0 95 C-0.42410156 95.39832031 -0.84820313 95.79664063 -1.28515625 96.20703125 C-8.7828158 102.97964241 -16.24272479 105.38215577 -26.328125 105.203125 C-35.76453688 104.48573696 -43.09474329 100.37324794 -50 94 C-57.38432059 85.06977489 -60.00763568 73.39544356 -59 62 C-58.02078984 52.08355423 -53.94617049 44.50275587 -46.75 37.625 C-37.6656672 30.19509867 -28.4159911 28.77930068 -16.96337891 29.71630859 C-10.12043729 30.70505494 -5.75122306 34.24877694 -1 39 C-0.67 26.13 -0.34 13.26 0 0 Z " fill="#154488" transform="translate(694,612)"/>
<path d="M0 0 C9.26190161 6.49377688 13.19535448 14.12121968 16.703125 24.64453125 C17.79453844 37.22696899 15.66097126 47.84456564 7.48828125 57.8984375 C-0.87372436 66.07746706 -11.44211828 68.90220453 -22.796875 69.01953125 C-34.17790149 68.88955433 -42.54152815 66.20527983 -51.296875 58.64453125 C-59.59815643 49.90634028 -61.70551129 39.57725198 -61.57421875 27.8046875 C-60.67465462 17.5547244 -55.45133409 9.43539349 -48.171875 2.45703125 C-34.60124761 -8.28760866 -14.77337332 -8.71830024 0 0 Z " fill="#53B349" transform="translate(990.296875,647.35546875)"/>
<path d="M0 0 C5.94 0 11.88 0 18 0 C21.38039299 9.01438132 21.38039299 9.01438132 22.53393555 12.33300781 C22.92400032 13.45391815 22.92400032 13.45391815 23.32194519 14.59747314 C24.47710461 17.93723964 25.630808 21.27749361 26.78051758 24.61914062 C27.38795037 26.38110449 27.99800133 28.1421678 28.6105957 29.90234375 C29.50022659 32.45893445 30.38184039 35.018164 31.26171875 37.578125 C31.6741407 38.75631805 31.6741407 38.75631805 32.09489441 39.95831299 C33.30884295 43.51734227 34 46.20065498 34 50 C34.66 50 35.32 50 36 50 C36.17329834 48.49433472 36.17329834 48.49433472 36.35009766 46.95825195 C36.9165684 43.01589504 38.07480507 39.42900996 39.3984375 35.66796875 C39.63406403 34.99131668 39.86969055 34.31466461 40.11245728 33.61750793 C40.8606401 31.4720159 41.61732289 29.32965543 42.375 27.1875 C43.36507566 24.36956769 44.35129865 21.55030488 45.3359375 18.73046875 C45.57197693 18.05708466 45.80801636 17.38370056 46.0512085 16.68991089 C47.66016884 12.06961153 49.12284059 7.42627719 50.44384766 2.71606445 C51 1 51 1 52 0 C54.86267567 -0.07325168 57.700719 -0.09238205 60.5625 -0.0625 C61.36880859 -0.05798828 62.17511719 -0.05347656 63.00585938 -0.04882812 C65.00393756 -0.03700518 67.00197783 -0.01906914 69 0 C73.24900477 8.82723025 76.13930776 18.08500997 79.1875 27.375 C79.73851063 29.04310809 80.28993956 30.71107807 80.84179688 32.37890625 C81.84657554 35.41761384 82.84907797 38.45704844 83.84838867 41.49755859 C84.56150488 43.66638733 85.27803374 45.83410121 86 48 C89.46385697 40.73619608 92.0518724 33.26272712 94.5625 25.625 C94.94857422 24.47 95.33464844 23.315 95.73242188 22.125 C97.82680341 15.80260805 99.75099523 9.47799307 101.40209961 3.02490234 C102 1 102 1 103 0 C104.34267413 -0.08631874 105.68974322 -0.10706473 107.03515625 -0.09765625 C107.84404297 -0.09443359 108.65292969 -0.09121094 109.48632812 -0.08789062 C110.33646484 -0.07951172 111.18660156 -0.07113281 112.0625 -0.0625 C112.91650391 -0.05798828 113.77050781 -0.05347656 114.65039062 -0.04882812 C116.76695663 -0.03700373 118.88348685 -0.01906769 121 0 C120.13254175 3.91414087 118.77503971 7.65487809 117.4453125 11.4296875 C117.18766617 12.16493149 116.93001984 12.90017548 116.66456604 13.65769958 C115.82021478 16.06423533 114.97281766 18.46968346 114.125 20.875 C113.83742828 21.69269867 113.54985657 22.51039734 113.25357056 23.35287476 C107.64716647 39.28908761 101.86847939 55.15863378 96 71 C89.73 71 83.46 71 77 71 C73.47427207 63.53894933 70.91191449 55.92805027 68.4375 48.0625 C67.85838867 46.24588867 67.85838867 46.24588867 67.26757812 44.39257812 C65.11330056 37.61412724 63.01533472 30.82105724 61 24 C58.92964636 27.93509875 57.34983263 31.71856883 56.10546875 35.984375 C53.97485521 43.11954724 51.66600888 50.18559608 49.3125 57.25 C48.90966797 58.47074219 48.50683594 59.69148437 48.09179688 60.94921875 C47.70701172 62.10550781 47.32222656 63.26179687 46.92578125 64.453125 C46.57942627 65.49629883 46.23307129 66.53947266 45.8762207 67.61425781 C45 70 45 70 44 71 C42.58429877 71.08651611 41.164405 71.10704904 39.74609375 71.09765625 C38.89208984 71.09443359 38.03808594 71.09121094 37.15820312 71.08789062 C36.26037109 71.07951172 35.36253906 71.07113281 34.4375 71.0625 C33.53580078 71.05798828 32.63410156 71.05347656 31.70507812 71.04882812 C29.46998686 71.03700225 27.23502563 71.0205222 25 71 C21.91600487 63.49389092 19.13786445 55.90139512 16.4375 48.25 C13.63906107 40.35056189 10.81596489 32.46316302 7.90234375 24.60546875 C7.64837326 23.9192746 7.39440277 23.23308044 7.13273621 22.52609253 C5.89579118 19.18538163 4.6537054 15.84671988 3.40405273 12.51074219 C2.95876221 11.3096582 2.51347168 10.10857422 2.0546875 8.87109375 C1.65749512 7.80818115 1.26030273 6.74526855 0.85107422 5.65014648 C0 3 0 3 0 0 Z " fill="#57B648" transform="translate(1012,644)"/>
<path d="M0 0 C-0.60355408 3.85025879 -1.76772603 6.86101159 -3.5625 10.3125 C-4.01753906 11.19550781 -4.47257812 12.07851563 -4.94140625 12.98828125 C-5.46541016 13.98408203 -5.46541016 13.98408203 -6 15 C-10.62280212 13.54016775 -15.06738857 11.77273622 -19.53515625 9.90234375 C-27.02194981 7.1615366 -37.09555522 6.21786163 -44.6875 8.9765625 C-48.3060588 11.14503708 -50.43579147 13.00936067 -52 17 C-52 21.35649522 -51.5491492 23.36179958 -48.6875 26.6875 C-42.4727109 31.21139183 -34.35203435 32.71044731 -27 34.4375 C-15.18675494 37.29004211 -5.03840204 41.36199167 1.80078125 51.68359375 C5.08426455 58.02595725 4.63309884 65.26751563 2.875 72 C0.13207438 80.24141706 -4.50018428 85.55734629 -12.1015625 89.74609375 C-25.82285751 95.68212569 -41.89218385 95.60274311 -56 91 C-72.02056203 84.54009596 -72.02056203 84.54009596 -75 80 C-74.76945043 76.45994847 -72.76830703 73.71045392 -70.9375 70.75 C-70.38964844 69.85796875 -69.84179688 68.9659375 -69.27734375 68.046875 C-68.85582031 67.37140625 -68.43429687 66.6959375 -68 66 C-63.17959479 67.82022891 -58.65237211 70.15786122 -54.08398438 72.52148438 C-47.75065062 75.74634946 -42.74698661 76.23164114 -35.75 76.3125 C-34.92886719 76.34150391 -34.10773438 76.37050781 -33.26171875 76.40039062 C-27.40481717 76.46072321 -22.84608829 75.41830458 -18 72 C-15.76515538 68.46149601 -15.48412239 65.1270209 -16 61 C-19.27437992 55.58467936 -23.6727304 53.65885027 -29.62890625 51.97265625 C-30.93877954 51.6636018 -32.25004973 51.3604211 -33.5625 51.0625 C-34.9810483 50.72114951 -36.3990121 50.37736163 -37.81640625 50.03125 C-38.51910645 49.85980469 -39.22180664 49.68835938 -39.94580078 49.51171875 C-51.40870021 46.6562116 -62.3599433 43.50989866 -69 33 C-72.01012078 25.67640717 -72.49740775 16.86831637 -70.16015625 9.26953125 C-65.67324562 0.49210676 -58.69325357 -4.25793097 -49.515625 -7.2734375 C-32.25650383 -12.25821473 -15.43288099 -8.45524862 0 0 Z " fill="#154488" transform="translate(479,623)"/>
<path d="M0 0 C22.77 0 45.54 0 69 0 C69 5.28 69 10.56 69 16 C52.5 16 36 16 19 16 C19 25.57 19 35.14 19 45 C33.52 45 48.04 45 63 45 C63 50.28 63 55.56 63 61 C48.15 61 33.3 61 18 61 C18 73.54 18 86.08 18 99 C12.06 99 6.12 99 0 99 C0 66.33 0 33.66 0 0 Z " fill="#5BB84A" transform="translate(813,616)"/>
<path d="M0 0 C0 0.66 0 1.32 0 2 C-2.97 2.99 -5.94 3.98 -9 5 C-9.33 4.67 -9.66 4.34 -10 4 C-24.01696771 4.06804353 -38.9823436 5.34239656 -51.8828125 11.09765625 C-53.90440779 11.95925867 -55.79865729 12.51468027 -57.9375 13 C-74.16441449 16.80671155 -88.71908928 25.71742052 -103 34 C-134.4737679 51.93666342 -168.26390275 69.58233919 -205.34765625 60.8515625 C-208 60 -208 60 -211 58 C-213.62531524 57.83286431 -213.62531524 57.83286431 -216 58 C-217.01241247 56.11076602 -218.00947425 54.21330056 -219 52.3125 C-219.556875 51.25675781 -220.11375 50.20101562 -220.6875 49.11328125 C-221.9672274 46.07773738 -222.28851043 44.23973174 -222 41 C-221 42.33333333 -220 43.66666667 -219 45 C-218.1646875 46.051875 -218.1646875 46.051875 -217.3125 47.125 C-216 49 -216 49 -216 51 C-206.90794642 55.8990124 -197.05262833 57.04284181 -187 55 C-169.70989978 49.66682968 -154.05438925 39.5231488 -138.62109375 30.33984375 C-97.23922639 5.72532247 -48.9448588 -17.10838529 0 0 Z " fill="#5BE8D7" transform="translate(744,422)"/>
<path d="M0 0 C5.61 0 11.22 0 17 0 C17.01458252 1.3317627 17.02916504 2.66352539 17.04418945 4.03564453 C17.10228101 8.9895272 17.17951373 13.94296051 17.26245117 18.89648438 C17.29564938 21.0380116 17.32369714 23.17962524 17.34643555 25.32128906 C17.38007504 28.40467054 17.43239654 31.48726369 17.48828125 34.5703125 C17.49467117 35.52366486 17.5010611 36.47701721 17.50764465 37.45925903 C17.64864337 43.87360649 18.98302726 47.89050036 22.5 53.3125 C27.12909983 56.43714239 32.91059732 56.58771465 38.3203125 55.55859375 C42.88490105 54.03995688 46.02185307 51.8540725 49 48 C51.01717771 42.40804882 51.33473823 37.25821308 51.4140625 31.34765625 C51.43342865 30.44752304 51.4527948 29.54738983 51.4727478 28.61997986 C51.53214471 25.76758055 51.57876831 22.91513999 51.625 20.0625 C51.66321655 18.11912381 51.70227038 16.17576388 51.7421875 14.23242188 C51.83937679 9.48836978 51.91926108 4.74447419 52 0 C57.94 0 63.88 0 70 0 C70 23.43 70 46.86 70 71 C64.39 71 58.78 71 53 71 C53 68.03 53 65.06 53 62 C52.41992188 62.47050781 51.83984375 62.94101562 51.2421875 63.42578125 C50.07042969 64.35970703 50.07042969 64.35970703 48.875 65.3125 C47.72644531 66.23482422 47.72644531 66.23482422 46.5546875 67.17578125 C40.84374511 71.25377834 36.55680819 72.50783614 29.6875 72.375 C28.9342041 72.36484863 28.1809082 72.35469727 27.40478516 72.34423828 C19.41248284 72.12151048 12.59256142 70.71270885 6.67729187 64.97431946 C0.31003002 57.47949451 -0.71452222 49.02478203 -0.48828125 39.55078125 C-0.48120651 38.41215134 -0.47413177 37.27352142 -0.46684265 36.10038757 C-0.43910529 32.50372459 -0.37640321 28.90868347 -0.3125 25.3125 C-0.28739056 22.85744453 -0.26458207 20.40236439 -0.24414062 17.94726562 C-0.18934596 11.96422956 -0.10321582 5.98238866 0 0 Z " fill="#134389" transform="translate(551,644)"/>
<path d="M0 0 C6.27 0 12.54 0 19 0 C20.88446864 4.30071884 22.76857882 8.60159152 24.65185547 12.90283203 C25.28967957 14.35929841 25.92769355 15.81568165 26.56591797 17.27197266 C30.75437189 26.82956278 34.9059078 36.40156502 39 46 C42.00980086 42.45248928 43.68790889 38.44545538 45.46875 34.19921875 C45.95112122 33.06731865 45.95112122 33.06731865 46.4432373 31.91255188 C47.46729842 29.50634687 48.48376619 27.09701975 49.5 24.6875 C50.18309009 23.07856211 50.86667882 21.46983583 51.55078125 19.86132812 C53.06847213 16.29069836 54.5813743 12.71808387 56.08996582 9.14360046 C57.38533559 6.09233568 58.69421845 3.04682362 60 0 C65.94 0 71.88 0 78 0 C77.26489813 3.67550936 76.68349264 6.03883465 75.1796875 9.30078125 C74.62933838 10.5069812 74.62933838 10.5069812 74.06787109 11.73754883 C73.4773999 13.01214966 73.4773999 13.01214966 72.875 14.3125 C72.051337 16.11424234 71.22842917 17.91633007 70.40625 19.71875 C69.99761719 20.61207031 69.58898437 21.50539063 69.16796875 22.42578125 C67.01567349 27.1694688 64.96021618 31.95473654 62.8984375 36.73828125 C60.97037625 41.12801862 58.92494027 45.46295091 56.89161682 49.80455017 C53.5029569 57.04682247 50.17717794 64.31753918 46.85571289 71.59082031 C45.80370759 73.89425153 44.75054601 76.1971516 43.69726562 78.5 C40.42854306 85.65088914 37.17128605 92.80519598 34 100 C27.73 100 21.46 100 15 100 C16.37438069 95.87685794 17.68432213 92.366837 19.56640625 88.5234375 C20.05173828 87.523125 20.53707031 86.5228125 21.03710938 85.4921875 C22.05787557 83.40621714 23.07870941 81.32027989 24.09960938 79.234375 C24.58365234 78.23664063 25.06769531 77.23890625 25.56640625 76.2109375 C26.00927979 75.30649902 26.45215332 74.40206055 26.90844727 73.47021484 C28.80660625 69.3372031 28.80660625 69.3372031 28.42153931 64.95191956 C28.09116669 64.22472214 27.76079407 63.49752472 27.42041016 62.74829102 C27.04896881 61.91544083 26.67752747 61.08259064 26.29483032 60.22450256 C25.88042694 59.32670578 25.46602356 58.428909 25.0390625 57.50390625 C24.61507172 56.56054916 24.19108093 55.61719208 23.75424194 54.64524841 C22.38865537 51.61263701 21.0074169 48.58747121 19.625 45.5625 C17.84275695 41.62792535 16.06631249 37.69073824 14.2890625 33.75390625 C13.85039856 32.785065 13.41173462 31.81622375 12.95977783 30.81802368 C9.85086376 23.93727059 6.81467307 17.02793065 3.8359375 10.08984375 C3.44773834 9.18770645 3.05953918 8.28556915 2.65957642 7.35609436 C2.3083371 6.53338547 1.95709778 5.71067657 1.59521484 4.86303711 C1.28578949 4.1384581 0.97636414 3.41387909 0.65756226 2.66734314 C0 1 0 1 0 0 Z " fill="#134186" transform="translate(722,644)"/>
<path d="M0 0 C4.95 0 9.9 0 15 0 C15 59.4 15 118.8 15 180 C12 181 12 181 0 181 C0 121.27 0 61.54 0 0 Z " fill="#21BAE1" transform="translate(542,284)"/>
<path d="M0 0 C5.61 0 11.22 0 17 0 C17 6.6 17 13.2 17 20 C23.27 20 29.54 20 36 20 C36 24.62 36 29.24 36 34 C29.73 34 23.46 34 17 34 C17.07409997 39.03624266 17.15701416 44.07074118 17.26245117 49.10620117 C17.29564169 50.81802238 17.32369189 52.52995148 17.34643555 54.24194336 C17.38009032 56.70733479 17.43240974 59.17174281 17.48828125 61.63671875 C17.49467117 62.39836838 17.5010611 63.16001801 17.50764465 63.94474792 C17.6312449 68.44293556 18.20720447 71.42393767 21 75 C23.57728289 76.28864145 25.08871156 75.93455998 27.9375 75.625 C28.81277344 75.53476562 29.68804688 75.44453125 30.58984375 75.3515625 C33.13641518 75.052297 33.13641518 75.052297 36 74 C36.48212214 75.56159059 36.96055873 77.12431928 37.4375 78.6875 C37.70433594 79.55761719 37.97117187 80.42773438 38.24609375 81.32421875 C38.96344529 83.87025921 39.517541 86.4003423 40 89 C32.27498534 92.94468834 23.50250519 93.16022857 15 92 C8.62663956 89.84484632 4.02371748 84.76129277 0.87939453 78.91723633 C-0.39014383 74.70576662 -0.24587767 70.69805682 -0.1953125 66.32421875 C-0.1924826 65.3990596 -0.18965271 64.47390045 -0.18673706 63.52070618 C-0.17557392 60.57617058 -0.15047637 57.63194312 -0.125 54.6875 C-0.11496521 52.68685336 -0.10584023 50.68620194 -0.09765625 48.68554688 C-0.07564722 43.7902465 -0.04114391 38.89517543 0 34 C-3.96 34 -7.92 34 -12 34 C-12 29.38 -12 24.76 -12 20 C-8.04 20 -4.08 20 0 20 C0 13.4 0 6.8 0 0 Z " fill="#134288" transform="translate(501,624)"/>
<path d="M0 0 C5.94 0 11.88 0 18 0 C18 33.99 18 67.98 18 103 C12.06 103 6.12 103 0 103 C0 69.01 0 35.02 0 0 Z " fill="#5AB94B" transform="translate(896,612)"/>
<path d="M0 0 C4.83285659 3.41495238 8.07174564 7.71319171 9.890625 13.3359375 C10.79093226 21.91808725 9.76100193 27.76459647 5.203125 35.0234375 C0.31561442 39.91094808 -4.3285731 41.58494167 -11.234375 41.7734375 C-17.42023564 41.5400088 -20.97357372 40.1157719 -25.734375 36.1484375 C-31.067385 29.83303092 -32.8137842 24.57145055 -32.48828125 16.234375 C-31.58894617 9.35492521 -28.37043756 4.75896095 -22.9609375 0.5234375 C-15.76533858 -4.09146138 -7.29016392 -4.04690202 0 0 Z " fill="#FBFCFB" transform="translate(979.109375,659.6640625)"/>
<path d="M0 0 C5.55779543 2.96023672 9.35556724 8.24564145 11.21484375 14.1796875 C12.0619384 21.64303718 12.31494743 28.458364 7.64453125 34.6328125 C3.82052006 38.77026723 -0.08081282 41.83985598 -5.73828125 42.55078125 C-13.13242837 42.69971549 -18.18181914 42.2296086 -23.78515625 37.1796875 C-29.70595972 30.94726279 -30.28553365 24.98625775 -30.171875 16.63671875 C-29.62740691 11.76950398 -27.96678729 8.81189635 -24.78515625 5.1796875 C-24.16640625 4.4165625 -23.54765625 3.6534375 -22.91015625 2.8671875 C-15.7842147 -2.79164844 -8.26599446 -2.96728006 0 0 Z " fill="#FAFBFC" transform="translate(682.78515625,658.8203125)"/>
<path d="M0 0 C0.66 0 1.32 0 2 0 C2.18175781 0.80824219 2.36351562 1.61648437 2.55078125 2.44921875 C2.80214844 3.51785156 3.05351563 4.58648437 3.3125 5.6875 C3.67794922 7.27111328 3.67794922 7.27111328 4.05078125 8.88671875 C5.33517062 13.09930445 6.39579907 16.12666035 10.375 18.29296875 C11.24125 18.58816406 12.1075 18.88335937 13 19.1875 C16.07675882 20.26344989 18.25516088 21.17010726 21 23 C19.04350603 23.83764268 17.08474444 24.66999059 15.125 25.5 C13.48917969 26.19609375 13.48917969 26.19609375 11.8203125 26.90625 C9 28 9 28 7 28 C5.37953557 31.87597574 4.09306228 35.79289449 2.875 39.8125 C2.34519531 41.55466797 2.34519531 41.55466797 1.8046875 43.33203125 C1.53914062 44.21246094 1.27359375 45.09289062 1 46 C-1.28456709 42.57314937 -2.02042165 39.52195325 -3.0234375 35.5703125 C-4.70685892 31.13954733 -6.80825943 28.62520069 -11.015625 26.41796875 C-12.08296875 26.01191406 -13.1503125 25.60585937 -14.25 25.1875 C-15.32765625 24.76855469 -16.4053125 24.34960938 -17.515625 23.91796875 C-18.33546875 23.61503906 -19.1553125 23.31210938 -20 23 C-17.22225577 20.22225577 -14.06141114 19.42587415 -10.41015625 18.09765625 C-5.97337181 16.07701374 -4.58313823 13.53459418 -2.875 9.0625 C-2.54242187 8.20785156 -2.20984375 7.35320312 -1.8671875 6.47265625 C-1.11391025 4.32479815 -0.50419984 2.21745032 0 0 Z " fill="#41DFF0" transform="translate(797,217)"/>
<path d="M0 0 C2 1 2 1 2.74609375 3.1796875 C3.20561701 4.97104935 3.66395789 6.76271493 4.12109375 8.5546875 C5.07632734 11.21235962 5.74881123 12.32434139 8 14 C10.49018012 14.99988926 10.49018012 14.99988926 13.1875 15.6875 C14.08855469 15.93886719 14.98960937 16.19023437 15.91796875 16.44921875 C16.60503906 16.63097656 17.29210937 16.81273437 18 17 C18 17.66 18 18.32 18 19 C17.16855469 19.27972656 16.33710937 19.55945313 15.48046875 19.84765625 C9.43112349 21.85274968 9.43112349 21.85274968 4.5703125 25.71484375 C3.65158786 27.7363814 3.65158786 27.7363814 3 31 C2.773125 31.969375 2.54625 32.93875 2.3125 33.9375 C2.209375 34.618125 2.10625 35.29875 2 36 C1.34 36 0.68 36 0 36 C-0.25523437 34.98679687 -0.25523437 34.98679687 -0.515625 33.953125 C-2.22008042 26.9936447 -2.22008042 26.9936447 -7 22 C-9.95667277 20.82858467 -12.94009898 19.86304901 -16 19 C-15 17 -15 17 -13.0390625 16.2890625 C-11.43585753 15.84805142 -9.83169051 15.41052219 -8.2265625 14.9765625 C-5.44736771 13.75761742 -4.53715808 12.59994097 -3 10 C-2.01310803 7.42967443 -2.01310803 7.42967443 -1.3125 4.75 C-1.06113281 3.85796875 -0.80976562 2.9659375 -0.55078125 2.046875 C-0.36902344 1.37140625 -0.18726563 0.6959375 0 0 Z " fill="#31C9EC" transform="translate(772,270)"/>
<path d="M0 0 C2 3 2 3 3.1875 5.5 C5.68598674 8.9461886 8.03132844 9.57726869 12 11 C9 13 9 13 6.5 14.1875 C3.0538114 16.68598674 2.42273131 19.03132844 1 23 C0.34 23 -0.32 23 -1 23 C-1.350625 21.9275 -1.70125 20.855 -2.0625 19.75 C-3.93898874 15.25917985 -6.70074169 14.02795203 -11 12 C-11 11.34 -11 10.68 -11 10 C-9.9275 9.649375 -8.855 9.29875 -7.75 8.9375 C-3.25917985 7.06101126 -2.02795203 4.29925831 0 0 Z " fill="#26A7EF" transform="translate(729,270)"/>
<path d="M0 0 C-0.33 0.66 -0.66 1.32 -1 2 C-2.9675293 2.4230957 -2.9675293 2.4230957 -5.57421875 2.67578125 C-6.54117676 2.77874512 -7.50813477 2.88170898 -8.50439453 2.98779297 C-9.55481934 3.09494629 -10.60524414 3.20209961 -11.6875 3.3125 C-28.69324426 5.25012111 -45.06520761 8.67202871 -61 15 C-62.39798828 15.50853516 -62.39798828 15.50853516 -63.82421875 16.02734375 C-69.21880943 18.03519589 -73.46369456 20.44984792 -78 24 C-79.32 23.34 -80.64 22.68 -82 22 C-79.33374057 19.87233325 -76.85497904 18.36440453 -73.69140625 17.09765625 C-72.86882324 16.76668945 -72.04624023 16.43572266 -71.19873047 16.09472656 C-69.89379639 15.58377441 -69.89379639 15.58377441 -68.5625 15.0625 C-67.66160645 14.70768555 -66.76071289 14.35287109 -65.83251953 13.98730469 C-49.93222501 7.79800472 -33.68609118 3.98903423 -16.875 1.25 C-16.10591309 1.12230225 -15.33682617 0.99460449 -14.54443359 0.86303711 C-9.64038989 0.10235974 -4.96247759 -0.11252784 0 0 Z " fill="#AAE64B" transform="translate(934,265)"/>
<path d="M0 0 C1 1.33333333 2 2.66666667 3 4 C3.556875 4.70125 4.11375 5.4025 4.6875 6.125 C6 8 6 8 6 10 C13.84719804 14.29550414 23.18717443 15.43457535 32 16 C32 16.33 32 16.66 32 17 C27.38 17 22.76 17 18 17 C17.67 17.99 17.34 18.98 17 20 C16.113125 19.505 15.22625 19.01 14.3125 18.5 C11.05481615 17.02482241 9.46571389 16.85830131 6 17 C4.98758753 15.11076602 3.99052575 13.21330056 3 11.3125 C2.443125 10.25675781 1.88625 9.20101563 1.3125 8.11328125 C0.0327726 5.07773738 -0.28851043 3.23973174 0 0 Z " fill="#2FD6DE" transform="translate(522,463)"/>
<path d="M0 0 C0.91007813 0.00902344 1.82015625 0.01804687 2.7578125 0.02734375 C3.45648437 0.03894531 4.15515625 0.05054688 4.875 0.0625 C1.875 2.0625 1.875 2.0625 -5.125 3.0625 C-5.125 29.4625 -5.125 55.8625 -5.125 83.0625 C-6.115 83.5575 -6.115 83.5575 -7.125 84.0625 C-7.125 56.6725 -7.125 29.2825 -7.125 1.0625 C-4.60024538 -0.19987731 -2.81299534 -0.03606404 0 0 Z " fill="#0AABF6" transform="translate(577.125,264.9375)"/>
<path d="M0 0 C-7.92 3.96 -7.92 3.96 -16 8 C-14.5975 7.649375 -13.195 7.29875 -11.75 6.9375 C-8.36868051 6.09217013 -6.33441016 6.06181264 -3 7 C-7.05636173 8.26485011 -11.11317579 9.52823582 -15.17041016 10.7902832 C-16.54976639 11.21957099 -17.92899956 11.64925443 -19.30810547 12.0793457 C-21.29362055 12.69847712 -23.27957796 13.31617118 -25.265625 13.93359375 C-26.45961914 14.30540771 -27.65361328 14.67722168 -28.88378906 15.06030273 C-31.24892848 15.77351345 -33.59638693 16.43551511 -36 17 C-32.83033806 13.45187097 -29.30419738 11.28604255 -25.125 9.125 C-24.47241211 8.783479 -23.81982422 8.44195801 -23.14746094 8.09008789 C-4.53226017 -1.51075339 -4.53226017 -1.51075339 0 0 Z " fill="#14466D" transform="translate(797,535)"/>
<path d="M0 0 C0.66 0.33 1.32 0.66 2 1 C-1.84135913 4.93330656 -5.69449326 8.80024016 -9.875 12.375 C-13.98360423 15.90356599 -17.7464176 19.73105978 -21.55078125 23.58203125 C-24.30058997 26.29675469 -27.17063581 28.81767727 -30.10546875 31.328125 C-33.21537263 34.07253502 -36.10923774 37.02793506 -39 40 C-39.66 39.67 -40.32 39.34 -41 39 C-38.00428676 35.97489042 -35.00265195 32.95572125 -32 29.9375 C-31.16082031 29.08994141 -30.32164062 28.24238281 -29.45703125 27.36914062 C-24.99993948 22.89477331 -20.48099998 18.58113882 -15.68847656 14.46801758 C-13.6500025 12.69570055 -11.75180439 10.81680195 -9.875 8.875 C-6.73419266 5.68453563 -3.4948314 2.79586512 0 0 Z " fill="#116660" transform="translate(823,479)"/>
<path d="M0 0 C0.33 0 0.66 0 1 0 C1.15433975 7.44124178 1.30251447 14.88257992 1.4429636 22.32409763 C1.50838034 25.78001661 1.57586709 29.23586857 1.64819336 32.69165039 C1.73137659 36.67062352 1.80536065 40.64974286 1.87890625 44.62890625 C1.90594131 45.86145645 1.93297638 47.09400665 1.96083069 48.36390686 C2.05900831 54.03422396 2.0628815 59.42076681 1 65 C2.98 64.01 4.96 63.02 7 62 C7 62.99 7 63.98 7 65 C2.77777778 68 2.77777778 68 0 68 C0 45.56 0 23.12 0 0 Z " fill="#0168E9" transform="translate(570,389)"/>
<path d="M0 0 C3.39672268 0.45725113 5.24234171 1.7959627 7.75 4.0625 C8.67039062 4.88427734 8.67039062 4.88427734 9.609375 5.72265625 C10.29773438 6.35494141 10.29773438 6.35494141 11 7 C9.68 9.31 8.36 11.62 7 14 C4.33333333 12.66666667 1.66666667 11.33333333 -1 10 C-1 9.34 -1 8.68 -1 8 C-0.01 7.34 0.98 6.68 2 6 C2 5.01 2 4.02 2 3 C1.01 2.34 0.02 1.68 -1 1 C-0.67 0.67 -0.34 0.34 0 0 Z " fill="#30BFEF" transform="translate(752,317)"/>
<path d="M0 0 C0.66 0 1.32 0 2 0 C2.474375 0.804375 2.94875 1.60875 3.4375 2.4375 C4.79983672 5.2918076 4.79983672 5.2918076 8 6 C8 6.66 8 7.32 8 8 C7.195625 8.474375 6.39125 8.94875 5.5625 9.4375 C2.7081924 10.79983672 2.7081924 10.79983672 2 14 C1.34 14 0.68 14 0 14 C-0.3403125 13.071875 -0.3403125 13.071875 -0.6875 12.125 C-2.37929835 9.38589791 -3.99244161 8.94975528 -7 8 C-7 7.34 -7 6.68 -7 6 C-6.030625 5.566875 -5.06125 5.13375 -4.0625 4.6875 C-0.72268235 3.2985139 -0.72268235 3.2985139 0 0 Z " fill="#42D6F5" transform="translate(868,244)"/>
<path d="M0 0 C0.66 0 1.32 0 2 0 C1.74605469 0.8765625 1.49210938 1.753125 1.23046875 2.65625 C-2.1078723 14.95934959 -3.62401388 27.34346405 -5 40 C-4.34 40.33 -3.68 40.66 -3 41 C-4.32 41.66 -5.64 42.32 -7 43 C-8.24565128 28.82725651 -4.87700501 13.2864202 0 0 Z " fill="#51A758" transform="translate(776,367)"/>
<path d="M0 0 C6.61455505 1.74504593 12.99462816 4.05237394 19.375 6.5 C20.15987793 6.79656494 20.94475586 7.09312988 21.75341797 7.39868164 C25.56724753 8.88147298 28.88149734 10.26505649 32 13 C31.01 13.99 30.02 14.98 29 16 C27.66144944 15.21718695 26.32926356 14.42348123 25 13.625 C24.2575 13.18414062 23.515 12.74328125 22.75 12.2890625 C22.1725 11.86367188 21.595 11.43828125 21 11 C21 10.34 21 9.68 21 9 C19.14375 8.6596875 19.14375 8.6596875 17.25 8.3125 C11.19074171 6.98854723 5.65108692 4.50521958 0 2 C0 1.34 0 0.68 0 0 Z " fill="#20ACF1" transform="translate(646,274)"/>
<path d="M0 0 C0 3.51716303 -0.82445585 4.37121748 -3 7 C-2.01 7.66 -1.02 8.32 0 9 C-6.27 12.63 -12.54 16.26 -19 20 C-19.33 19.34 -19.66 18.68 -20 18 C-19.31035156 17.45472656 -18.62070312 16.90945313 -17.91015625 16.34765625 C-11.53319906 11.23034493 -5.65939736 5.91092613 0 0 Z " fill="#0E575C" transform="translate(780,520)"/>
<path d="M0 0 C1.7143618 1.95927063 3.38405168 3.95880212 5 6 C4.0409375 6.37125 4.0409375 6.37125 3.0625 6.75 C0.81258459 7.81562433 0.81258459 7.81562433 0.25 10.125 C0.1675 10.74375 0.085 11.3625 0 12 C-2 12 -2 12 -4.625 9.5 C-5.40875 8.675 -6.1925 7.85 -7 7 C-5.84933177 3.5479953 -4.01648928 0 0 0 Z " fill="#44D0F4" transform="translate(836,259)"/>
<path d="M0 0 C0.66 0 1.32 0 2 0 C2 5.61 2 11.22 2 17 C-4 15 -10 13 -16 11 C-16 10.34 -16 9.68 -16 9 C-10.38900227 9.97448772 -5.32521242 12.01106524 0 14 C0 9.38 0 4.76 0 0 Z " fill="#2364C8" transform="translate(759,397)"/>
<path d="M0 0 C0.33 0.66 0.66 1.32 1 2 C1.66 2 2.32 2 3 2 C4.38442 3.96498322 5.71203834 5.97048465 7 8 C7.98866506 9.34175973 8.9838154 10.67896002 10 12 C9.34 12 8.68 12 8 12 C8.33 13.65 8.66 15.3 9 17 C8.34 17.33 7.68 17.66 7 18 C5.82625827 15.56568361 4.66084237 13.12795818 3.5 10.6875 C3.16613281 9.99720703 2.83226562 9.30691406 2.48828125 8.59570312 C0 3.33984375 0 3.33984375 0 0 Z " fill="#148CD7" transform="translate(519,494)"/>
<path d="M0 0 C6.23756832 -0.10672645 12.29853198 0.07104056 18.49609375 0.77734375 C22.66182452 1.14777535 26.82197238 1.08000478 31 1 C31 1.33 31 1.66 31 2 C26.76783574 3.02325055 22.6450407 3.1915989 18.3125 3.1875 C17.60931641 3.18814453 16.90613281 3.18878906 16.18164062 3.18945312 C10.61856851 3.13336349 5.38422014 2.44959773 0 1 C0 0.67 0 0.34 0 0 Z " fill="#13A8C2" transform="translate(557,496)"/>
<path d="M0 0 C1.43739513 -0.02712066 2.87493863 -0.04645067 4.3125 -0.0625 C5.51326172 -0.07990234 5.51326172 -0.07990234 6.73828125 -0.09765625 C9 0 9 0 12 1 C12 5.95 12 10.9 12 16 C10.68 15.67 9.36 15.34 8 15 C8.66 10.71 9.32 6.42 10 2 C6.7 1.67 3.4 1.34 0 1 C0 0.67 0 0.34 0 0 Z " fill="#A7E345" transform="translate(948,265)"/>
<path d="M0 0 C0.91007813 0.00902344 1.82015625 0.01804687 2.7578125 0.02734375 C3.45648437 0.03894531 4.15515625 0.05054688 4.875 0.0625 C1.875 2.0625 1.875 2.0625 -5.125 3.0625 C-5.455 9.9925 -5.785 16.9225 -6.125 24.0625 C-6.455 24.0625 -6.785 24.0625 -7.125 24.0625 C-7.125 16.4725 -7.125 8.8825 -7.125 1.0625 C-4.60024538 -0.19987731 -2.81299534 -0.03606404 0 0 Z " fill="#15B7F9" transform="translate(577.125,264.9375)"/>
<path d="M0 0 C-6 3 -12 6 -18 9 C-18.66 8.01 -19.32 7.02 -20 6 C-17.42249905 4.79816525 -14.83928838 3.61343114 -12.25 2.4375 C-11.52039063 2.09525391 -10.79078125 1.75300781 -10.0390625 1.40039062 C-9.33007812 1.08134766 -8.62109375 0.76230469 -7.890625 0.43359375 C-7.24125977 0.13509521 -6.59189453 -0.16340332 -5.92285156 -0.47094727 C-3.60506519 -1.10866223 -2.25095697 -0.75542816 0 0 Z " fill="#9BDF4B" transform="translate(872,280)"/>
<path d="M0 0 C0.33 0 0.66 0 1 0 C1.77313045 5.9114744 2.14819277 11.1314592 1 17 C2.98 16.01 4.96 15.02 7 14 C7 14.99 7 15.98 7 17 C2.77777778 20 2.77777778 20 0 20 C0 13.4 0 6.8 0 0 Z " fill="#0D5BD7" transform="translate(570,437)"/>
<path d="M0 0 C2.73544525 2.38172388 3.92545358 4.70665291 5.25 8.0625 C5.60578125 8.94035156 5.9615625 9.81820313 6.328125 10.72265625 C7 13 7 13 6 15 C2.66475716 12.30004151 1.43648692 8.96744005 0 5 C-0.1875 2.0625 -0.1875 2.0625 0 0 Z " fill="#18ACDD" transform="translate(954,416)"/>
<path d="M0 0 C6.10737442 1.76463072 12.07433507 3.69557475 18 6 C18 6.66 18 7.32 18 8 C11.70277443 6.60061654 5.93915684 4.50710309 0 2 C0 1.34 0 0.68 0 0 Z " fill="#23B7F6" transform="translate(646,274)"/>
<path d="M0 0 C0.66 0.33 1.32 0.66 2 1 C-6.261959 9.44646925 -6.261959 9.44646925 -11 13 C-11.66 12.67 -12.32 12.34 -13 12 C-8.84792208 7.7373638 -4.63678779 3.73204871 0 0 Z " fill="#147462" transform="translate(823,479)"/>
<path d="M0 0 C0.66 0.33 1.32 0.66 2 1 C1.54996653 6.62541841 0.31558515 9.61487125 -3 14 C-3.66 13.67 -4.32 13.34 -5 13 C-4.72285156 12.48050781 -4.44570313 11.96101563 -4.16015625 11.42578125 C-2.19266733 7.63783995 -0.53662611 4.29300887 0 0 Z " fill="#4AD6ED" transform="translate(772,270)"/>
<path d="M0 0 C0.33 1.32 0.66 2.64 1 4 C-2.28519475 5.09506492 -4.73663415 5.09960608 -8.1875 5.0625 C-9.81751953 5.04896484 -9.81751953 5.04896484 -11.48046875 5.03515625 C-12.31191406 5.02355469 -13.14335938 5.01195312 -14 5 C-13.67 4.01 -13.34 3.02 -13 2 C-12.67 2.33 -12.34 2.66 -12 3 C-6.98120022 3.38606152 -4.09287798 2.97663853 0 0 Z " fill="#1B84BC" transform="translate(556,460)"/>
<path d="M0 0 C0.33 0.66 0.66 1.32 1 2 C1.66 2 2.32 2 3 2 C4.32 4.31 5.64 6.62 7 9 C5.68 9.33 4.36 9.66 3 10 C0 3.375 0 3.375 0 0 Z " fill="#119CDE" transform="translate(519,494)"/>
<path d="M0 0 C0.99 0.33 1.98 0.66 3 1 C3 1.66 3 2.32 3 3 C-1.95 5.475 -1.95 5.475 -7 8 C-7 6 -7 6 -5.57421875 4.45703125 C-4.95160156 3.91433594 -4.32898438 3.37164063 -3.6875 2.8125 C-3.07261719 2.26207031 -2.45773437 1.71164062 -1.82421875 1.14453125 C-1.22222656 0.76683594 -0.62023437 0.38914062 0 0 Z " fill="#1D5163" transform="translate(767,532)"/>
<path d="M0 0 C5.52677733 -0.19392201 9.75614911 0.2520497 15 2 C15 2.33 15 2.66 15 3 C9.5610835 3.21755666 5.12919186 3.10428384 0 1 C0 0.67 0 0.34 0 0 Z " fill="#1A7B64" transform="translate(951,536)"/>
<path d="M0 0 C2.24027294 2.88035092 4.16172132 5.84866512 6 9 C4.68 9.33 3.36 9.66 2 10 C0.39644899 6.49223216 -0.22036864 3.85645121 0 0 Z " fill="#53E3EE" transform="translate(522,463)"/>
<path d="M0 0 C2.475 0.495 2.475 0.495 5 1 C4.34 2.98 3.68 4.96 3 7 C0 3.375 0 3.375 0 0 Z " fill="#3BDBEB" transform="translate(525,472)"/>
<path d="M0 0 C0 3 0 3 -1.53125 4.60546875 C-2.1809375 5.12753906 -2.830625 5.64960938 -3.5 6.1875 C-4.1496875 6.71730469 -4.799375 7.24710937 -5.46875 7.79296875 C-5.9740625 8.19128906 -6.479375 8.58960938 -7 9 C-7 6 -7 6 -5.46875 4.39453125 C-4.49421875 3.61142578 -4.49421875 3.61142578 -3.5 2.8125 C-2.8503125 2.28269531 -2.200625 1.75289063 -1.53125 1.20703125 C-1.0259375 0.80871094 -0.520625 0.41039062 0 0 Z " fill="#1D805E" transform="translate(843,462)"/>
<path d="M0 0 C3.3 0 6.6 0 10 0 C7.09907498 1.93395001 6.10325263 2.30131941 2.8125 2.625 C1.554375 2.74875 0.29625 2.8725 -1 3 C-0.67 2.01 -0.34 1.02 0 0 Z " fill="#42CAFB" transform="translate(572,265)"/>
<path d="M0 0 C0.94875 0.04125 1.8975 0.0825 2.875 0.125 C1.555 1.445 0.235 2.765 -1.125 4.125 C-2.445 3.465 -3.765 2.805 -5.125 2.125 C-3.125 0.125 -3.125 0.125 0 0 Z " fill="#8ED843" transform="translate(857.125,284.875)"/>
<path d="M0 0 C2.97 0.495 2.97 0.495 6 1 C5.01 2.32 4.02 3.64 3 5 C1.5 3.625 1.5 3.625 0 2 C0 1.34 0 0.68 0 0 Z " fill="#13A3EF" transform="translate(672,285)"/>
</svg>
